#!OML:ASF I:\Actors\actors\Patient Classification 1\Patient 1\Session 1\Subject1.ASF
:FULLY-SPECIFIED
:DEGREES
508
root -0.248453 17.6905 7.6631 11.3283 -6.38458 -7.39195
lowerback 7.32512 -0.950181 6.07665
upperback -10.9731 -0.157639 1.77489
thorax -16.5185 -0.674628 -1.34394
lowerneck -9.79246 -13.4725 -9.21548
upperneck 11.9126 -18.1901 8.33953
head 6.8333 -8.66498 2.27037
rclavicle -3.60297e-015 -1.35174e-014
rhumerus 41.247 -21.7421 -54.1075
rradius 110.075
rwrist 16.4306
rhand -28.0897 -45.7775
rfingers 7.12502
rthumb -1.47259 284.248
lclavicle -3.60297e-015 -1.35174e-014
lhumerus -17.7358 -52.065 77.3791
lradius 94.5862
lwrist 38.6672
lhand -13.5962 7.5369
lfingers 7.12502
lthumb 12.5184 37.1419
rfemur -8.78445 26.5213 19.8063
rtibia 2.82662
rfoot -9.98195 -23.8968
rtoes -2.05061
lfemur -0.0779566 -40.1843 -11.407
ltibia -3.21973
lfoot -19.1117 52.4353
ltoes 14.4508
509
root -0.246116 17.6893 7.66891 11.5363 -6.54812 -7.44543
lowerback 7.00583 -0.559726 6.18858
upperback -10.829 0.338393 1.58805
thorax -16.0864 -0.461063 -1.73089
lowerneck -9.16993 -14.1671 -9.65536
upperneck 11.0527 -19.153 8.95708
head 6.64402 -9.13797 2.451
rclavicle -1.7344e-014 2.127e-014
rhumerus 44.28 -24.5887 -57.8885
rradius 109.13
rwrist 19.2392
rhand -31.3545 -46.1734
rfingers 7.12502
rthumb -4.62545 283.897
lclavicle -1.7344e-014 2.127e-014
lhumerus -15.1997 -53.0822 76.1332
lradius 94.4639
lwrist 39.2291
lhand -14.4876 7.163
lfingers 7.12502
lthumb 11.6589 36.8186
rfemur -8.85177 26.9084 19.7384
rtibia 2.52501
rfoot -9.85785 -24.1626
rtoes -2.01929
lfemur 0.183429 -41.3343 -11.4891
ltibia -3.52983
lfoot -20.8808 53.4798
ltoes 16.2137
510
root -0.244154 17.6891 7.67494 11.6392 -6.74704 -7.50711
lowerback 6.32941 -0.276496 6.07452
upperback -10.4238 0.634894 1.5896
thorax -15.1116 -0.276981 -1.7361
lowerneck -8.75126 -14.6638 -10.0449
upperneck 10.1822 -19.7717 9.24107
head 6.42199 -9.4611 2.55814
rclavicle -1.81888e-014 2.98177e-015
rhumerus 46.2888 -26.2149 -60.9431
rradius 107.563
rwrist 22.1625
rhand -33.6723 -44.8278
rfingers 7.12502
rthumb -6.86323 285.303
lclavicle -1.81888e-014 2.98177e-015
lhumerus -12.219 -53.4158 74.7275
lradius 93.9282
lwrist 39.9184
lhand -15.3628 7.15214
lfingers 7.12502
lthumb 10.8148 36.8537
rfemur -8.81631 27.3099 19.7303
rtibia 2.27919
rfoot -9.76981 -24.3469
rtoes -1.88267
lfemur 0.515335 -42.3274 -11.6556
ltibia -3.72406
lfoot -22.3689 54.4305
ltoes 17.4704
511
root -0.240399 17.6871 7.68008 11.6437 -6.9438 -7.60114
lowerback 6.42168 -0.00376964 6.12698
upperback -10.6054 1.01633 1.45856
thorax -15.362 -0.123826 -1.98313
lowerneck -7.79201 -15.0215 -10.4123
upperneck 10.0396 -20.2753 9.12121
head 6.28908 -9.76261 2.57726
rclavicle -5.51627e-015 -1.70955e-014
rhumerus 45.4044 -26.8425 -62.2737
rradius 104.487
rwrist 26.2563
rhand -34.339 -42.761
rfingers 7.12502
rthumb -7.50675 287.392
lclavicle -5.51627e-015 -1.70955e-014
lhumerus -11.3388 -54.0442 74.979
lradius 93.2877
lwrist 40.7575
lhand -15.8594 7.47504
lfingers 7.12502
lthumb 10.3358 37.201
rfemur -8.72374 27.5485 19.7994
rtibia 2.12077
rfoot -9.67965 -24.3248
rtoes -1.76043
lfemur 0.846856 -42.9228 -11.8137
ltibia -3.81235
lfoot -23.4029 55.0684
ltoes 18.0654
512
root -0.235752 17.6814 7.68564 11.5656 -7.25688 -7.73378
lowerback 5.80889 0.187092 5.86862
upperback -10.3118 1.18652 1.53419
thorax -14.5891 0.0178383 -1.7861
lowerneck -7.06451 -15.3577 -11.4774
upperneck 9.85284 -20.7794 9.85535
head 6.35201 -10.0257 2.91335
rclavicle 2.88238e-015 2.94201e-014
rhumerus 44.0857 -26.5954 -62.7579
rradius 99.2589
rwrist 29.1505
rhand -33.9651 -40.267
rfingers 7.12502
rthumb -7.14589 289.874
lclavicle 2.88238e-015 2.94201e-014
lhumerus -9.62732 -53.855 74.5908
lradius 92.5065
lwrist 41.9037
lhand -15.925 8.0539
lfingers 7.12502
lthumb 10.2725 37.783
rfemur -8.59052 27.5047 19.943
rtibia 2.03126
rfoot -9.53453 -23.903
rtoes -1.84493
lfemur 1.38605 -43.4121 -12.0769
ltibia -3.92892
lfoot -24.7674 55.6424
ltoes 18.8745
513
root -0.231621 17.6721 7.69488 11.4174 -7.66009 -7.92287
lowerback 5.84075 0.417464 5.76764
upperback -10.5023 1.48954 1.45144
thorax -14.8158 0.156445 -1.87557
lowerneck -6.52173 -15.5336 -12.1034
upperneck 10.9796 -21.1309 9.81209
head 6.72049 -10.2235 2.93085
rclavicle -2.71838e-014 9.93923e-015
rhumerus 40.7247 -25.3775 -61.6015
rradius 91.3752
rwrist 29.8257
rhand -35.0877 -38.9898
rfingers 7.12502
rthumb -8.22939 291.191
lclavicle -2.71838e-014 9.93923e-015
lhumerus -9.63631 -54.1444 75.4116
lradius 91.7608
lwrist 43.0932
lhand -15.7983 8.58197
lfingers 7.12502
lthumb 10.3948 38.305
rfemur -8.37686 27.3729 20.2033
rtibia 1.98382
rfoot -9.39767 -23.2969
rtoes -2.04946
lfemur 2.16589 -43.8884 -12.4519
ltibia -4.07584
lfoot -26.5782 56.1729
ltoes 20.067
514
root -0.229576 17.6619 7.70751 11.186 -8.08805 -8.05889
lowerback 5.07633 0.590705 5.37841
upperback -10.1254 1.60476 1.50419
thorax -13.8615 0.289496 -1.61214
lowerneck -6.72483 -15.5418 -12.1017
upperneck 11.8731 -21.1352 9.34549
head 6.98835 -10.2342 2.74684
rclavicle 1.47101e-014 -4.37326e-015
rhumerus 38.5646 -23.7627 -59.7661
rradius 80.3192
rwrist 29.5677
rhand -32.3752 -37.944
rfingers 7.12502
rthumb -5.61095 292.15
lclavicle 1.47101e-014 -4.37326e-015
lhumerus -8.10635 -54.1319 74.9643
lradius 90.8311
lwrist 43.9545
lhand -15.7187 8.99655
lfingers 7.12502
lthumb 10.4715 38.7157
rfemur -8.08795 27.326 20.4735
rtibia 2.02696
rfoot -9.32737 -22.7747
rtoes -2.29264
lfemur 3.12328 -44.3754 -13.0288
ltibia -4.22024
lfoot -28.2226 56.7469
ltoes 20.8176
515
root -0.232718 17.6532 7.72223 10.8644 -8.52402 -8.07776
lowerback 5.25243 0.810448 5.0368
upperback -10.4181 1.86353 1.2912
thorax -14.3051 0.417791 -1.70351
lowerneck -6.30702 -15.3861 -11.3842
upperneck 13.053 -20.9542 8.07276
head 7.05912 -10.2074 2.30618
rclavicle -6.75868e-015 2.38542e-015
rhumerus 35.5379 -20.8131 -55.9427
rradius 66.6816
rwrist 26.2669
rhand -28.1316 -36.0603
rfingers 7.12502
rthumb -1.51303 293.965
lclavicle -6.75868e-015 2.38542e-015
lhumerus -8.58444 -55.1031 75.8234
lradius 89.9979
lwrist 44.2802
lhand -15.9525 9.40037
lfingers 7.12502
lthumb 10.246 39.1308
rfemur -7.72222 27.3406 20.6791
rtibia 2.14353
rfoot -9.32719 -22.3251
rtoes -2.3507
lfemur 4.18225 -44.703 -13.8079
ltibia -4.36339
lfoot -29.0633 57.3314
ltoes 20.7401
516
root -0.239963 17.6462 7.73891 10.4723 -8.92894 -8.02888
lowerback 5.08373 0.873996 4.44488
upperback -10.4816 1.85794 1.21413
thorax -14.2792 0.473832 -1.45503
lowerneck -5.8446 -15.1986 -11.5587
upperneck 14.1716 -20.7905 7.7829
head 7.31586 -10.1631 2.2629
rclavicle 8.84592e-015 -1.66979e-014
rhumerus 34.2783 -16.091 -51.1386
rradius 52.3293
rwrist 18.8728
rhand -16.4402 -35.934
rfingers 7.12502
rthumb 9.77545 294.313
lclavicle 8.84592e-015 -1.66979e-014
lhumerus -8.93935 -55.6944 76.294
lradius 89.2854
lwrist 44.454
lhand -16.3771 9.705
lfingers 7.12502
lthumb 9.83637 39.4552
rfemur -7.26656 27.3009 20.8667
rtibia 2.25363
rfoot -9.33912 -21.8727
rtoes -2.44826
lfemur 5.23282 -44.7163 -14.6463
ltibia -4.47325
lfoot -29.6996 57.6069
ltoes 20.8715
517
root -0.247834 17.6419 7.75552 10.0333 -9.21278 -7.94896
lowerback 4.84061 0.84786 3.86219
upperback -10.4127 1.72829 1.17182
thorax -14.0542 0.478101 -1.15076
lowerneck -5.56153 -14.9114 -11.7097
upperneck 15.1309 -20.467 7.57997
head 7.54434 -10.0329 2.25673
rclavicle -8.74653e-015 -7.95139e-016
rhumerus 33.9258 -10.3084 -45.7894
rradius 40.313
rwrist 6.92237
rhand -28.2254 -45.0135
rfingers 7.12502
rthumb -1.6036 285.013
lclavicle -8.74653e-015 -7.95139e-016
lhumerus -9.15847 -56.1006 76.3859
lradius 88.9003
lwrist 44.8538
lhand -16.2533 10.0971
lfingers 7.12502
lthumb 9.95578 39.8416
rfemur -6.74533 27.0399 21.066
rtibia 2.35259
rfoot -9.34139 -21.3536
rtoes -2.76302
lfemur 6.16474 -44.4952 -15.4301
ltibia -4.49512
lfoot -30.443 57.4885
ltoes 21.4469
518
root -0.258487 17.6429 7.77015 9.60918 -9.31878 -7.92157
lowerback 4.55281 0.867482 3.48169
upperback -10.106 1.67083 1.04788
thorax -13.507 0.496547 -1.06014
lowerneck -5.82393 -14.7526 -10.9662
upperneck 15.5556 -20.1776 6.73399
head 7.5296 -9.90753 1.91756
rclavicle -4.27387e-015 -3.97569e-015
rhumerus 34.249 -6.13651 -42.0232
rradius 31.3373
rwrist -9.33082
rhand -29.0017 -47.7358
rfingers 7.12502
rthumb -2.35331 282.297
lclavicle -4.27387e-015 -3.97569e-015
lhumerus -8.2974 -56.6576 75.4236
lradius 88.8445
lwrist 45.6016
lhand -15.3818 10.6017
lfingers 7.12502
lthumb 10.7965 40.3042
rfemur -6.26161 26.6965 21.3412
rtibia 2.53121
rfoot -9.41387 -20.919
rtoes -2.92751
lfemur 6.87663 -44.1375 -15.9495
ltibia -4.46785
lfoot -30.5959 57.1962
ltoes 21.5638
519
root -0.273446 17.65 7.78384 9.27615 -9.22071 -7.95493
lowerback 3.93434 0.810383 3.13802
upperback -9.53724 1.5044 0.999372
thorax -12.457 0.472623 -0.884133
lowerneck -6.67103 -14.5991 -10.5838
upperneck 16.2086 -19.9144 6.40371
head 7.7907 -9.75055 1.71783
rclavicle -7.55382e-015 1.82882e-014
rhumerus 36.5411 -13.428 -50.6217
rradius 25.5389
rwrist -15.407
rhand -26.3715 -43.5746
rfingers 7.12502
rthumb 0.186912 286.446
lclavicle -7.55382e-015 1.82882e-014
lhumerus -6.5976 -56.958 73.6174
lradius 89.0972
lwrist 46.9206
lhand -14.5579 11.2644
lfingers 7.12502
lthumb 11.5911 40.9238
rfemur -5.92706 26.3114 21.6624
rtibia 2.80194
rfoot -9.46896 -20.6589
rtoes -3.4178
lfemur 7.20015 -43.5135 -16.0373
ltibia -4.42389
lfoot -29.7296 56.6901
ltoes 20.8983
520
root -0.29036 17.6608 7.80022 9.01749 -8.90543 -7.99465
lowerback 4.39463 0.776369 3.22346
upperback -9.89207 1.45842 0.63463
thorax -13.1528 0.403066 -1.33215
lowerneck -6.51186 -14.4499 -10.3546
upperneck 17.4083 -19.7874 5.98557
head 8.08297 -9.70654 1.5514
rclavicle 2.68359e-014 -6.36111e-015
rhumerus 37.0817 -21.8281 -59.8655
rradius 24.3193
rwrist -8.77985
rhand -19.8794 -40.199
rfingers 7.12502
rthumb 6.45627 289.919
lclavicle 2.68359e-014 -6.36111e-015
lhumerus -7.64401 -58.2169 73.7488
lradius 89.7115
lwrist 48.505
lhand -14.4671 11.9895
lfingers 7.12502
lthumb 11.6787 41.644
rfemur -5.64978 25.867 21.9678
rtibia 3.04273
rfoot -9.5069 -20.5597
rtoes -4.04659
lfemur 7.19967 -42.6161 -15.8116
ltibia -4.38761
lfoot -27.9185 55.9155
ltoes 19.4679
521
root -0.306811 17.6708 7.82226 8.79651 -8.43935 -8.11812
lowerback 4.47595 0.677987 3.16093
upperback -10.0381 1.3128 0.524106
thorax -13.3824 0.326981 -1.3979
lowerneck -6.2614 -14.2638 -10.1383
upperneck 18.0712 -19.5502 5.53972
head 8.17182 -9.62206 1.418
rclavicle 8.74653e-015 8.74653e-015
rhumerus 38.0745 -25.9898 -64.1829
rradius 24.0037
rwrist 1.24573
rhand -7.7844 -44.7564
rfingers 7.12502
rthumb 18.1163 286.067
lclavicle 8.74653e-015 8.74653e-015
lhumerus -8.08405 -59.1327 73.5504
lradius 90.0897
lwrist 49.4011
lhand -14.6913 12.4211
lfingers 7.12502
lthumb 11.4625 42.0877
rfemur -5.30527 25.4655 22.368
rtibia 3.2007
rfoot -9.64749 -20.5896
rtoes -3.99377
lfemur 7.20928 -41.9057 -15.4926
ltibia -4.39629
lfoot -26.1289 55.1834
ltoes 17.9088
